<svg xmlns="http://www.w3.org/2000/svg" width="360" height="360" viewBox="0 0 360 360" shape-rendering="crispEdges"><defs><clipPath id="screen"><circle cx="180" cy="180" r="180"/></clipPath></defs><g clip-path="url(#screen)"><rect x="36" y="273" width="6" height="9" fill="#447b55"/><rect x="39" y="270" width="12" height="3" fill="#447b55"/><rect x="45" y="267" width="6" height="3" fill="#447b55"/><rect x="48" y="273" width="3" height="3" fill="#447b55"/><rect x="96" y="318" width="18" height="3" fill="#447b55"/><rect x="96" y="321" width="6" height="6" fill="#447b55"/><rect x="99" y="315" width="18" height="3" fill="#447b55"/><rect x="105" y="312" width="12" height="3" fill="#447b55"/><rect x="111" y="309" width="6" height="3" fill="#447b55"/><rect x="285" y="321" width="24" height="3" fill="#447b55"/><rect x="285" y="324" width="18" height="3" fill="#447b55"/><rect x="288" y="327" width="9" height="3" fill="#447b55"/><rect x="291" y="318" width="24" height="3" fill="#447b55"/><rect x="300" y="315" width="18" height="3" fill="#447b55"/><rect x="315" y="282" width="3" height="3" fill="#749958"/><rect x="318" y="285" width="3" height="3" fill="#749958"/><rect x="321" y="288" width="3" height="3" fill="#749958"/><rect x="324" y="291" width="3" height="3" fill="#749958"/><rect x="327" y="294" width="3" height="3" fill="#749958"/><rect x="18" y="255" width="6" height="3" fill="#285d46"/><rect x="18" y="258" width="12" height="3" fill="#285d46"/><rect x="21" y="261" width="18" height="3" fill="#285d46"/><rect x="24" y="264" width="24" height="3" fill="#285d46"/><rect x="30" y="267" width="15" height="3" fill="#285d46"/><rect x="36" y="270" width="3" height="3" fill="#285d46"/><rect x="42" y="273" width="6" height="21" fill="#285d46"/><rect x="78" y="306" width="6" height="3" fill="#285d46"/><rect x="78" y="309" width="12" height="3" fill="#285d46"/><rect x="81" y="312" width="15" height="3" fill="#285d46"/><rect x="84" y="315" width="15" height="3" fill="#285d46"/><rect x="87" y="318" width="9" height="3" fill="#285d46"/><rect x="93" y="321" width="3" height="3" fill="#285d46"/><rect x="102" y="321" width="9" height="6" fill="#285d46"/><rect x="102" y="327" width="6" height="9" fill="#285d46"/><rect x="312" y="279" width="6" height="3" fill="#285d46"/><rect x="312" y="282" width="3" height="3" fill="#285d46"/><rect x="315" y="285" width="3" height="3" fill="#285d46"/><rect x="318" y="282" width="6" height="3" fill="#285d46"/><rect x="318" y="288" width="3" height="3" fill="#285d46"/><rect x="321" y="285" width="9" height="3" fill="#285d46"/><rect x="321" y="291" width="3" height="3" fill="#285d46"/><rect x="321" y="297" width="9" height="18" fill="#285d46"/><rect x="324" y="288" width="12" height="3" fill="#285d46"/><rect x="327" y="291" width="15" height="3" fill="#285d46"/><rect x="330" y="294" width="15" height="3" fill="#285d46"/><rect x="333" y="297" width="12" height="3" fill="#285d46"/></g></svg>
