<svg xmlns="http://www.w3.org/2000/svg" width="360" height="360" viewBox="0 0 360 360" shape-rendering="crispEdges"><title>PixelMew / Loose Stitch Day / room</title><defs><clipPath id="screen"><circle cx="180" cy="180" r="180"/></clipPath></defs><g clip-path="url(#screen)"><rect width="360" height="360" fill="#f2ecef"/><rect data-scene="loose-stitch-day" data-layer="back" x="0" y="320" width="360" height="40" fill="#e8dde6"/><rect data-scene="loose-stitch-day" data-layer="back" x="208" y="315" width="89" height="8" fill="#e8dde6"/><rect data-scene="loose-stitch-day" data-layer="back" x="300" y="137" width="23" height="3" fill="#b39aae"/><rect data-scene="loose-stitch-day" data-layer="back" x="304" y="138" width="13" height="2" fill="#f1d8e8"/><rect data-scene="loose-stitch-day" data-layer="back" x="309" y="140" width="2" height="37" fill="#a386a3"/><rect data-scene="loose-stitch-day" data-layer="back" x="309" y="175" width="12" height="2" fill="#a386a3"/><rect data-scene="loose-stitch-day" data-layer="back" x="319" y="177" width="2" height="15" fill="#a386a3"/><rect data-scene="loose-stitch-day" data-layer="back" x="303" y="190" width="16" height="2" fill="#a386a3"/><rect data-scene="loose-stitch-day" data-layer="back" x="301" y="181" width="2" height="9" fill="#a386a3"/><rect data-scene="loose-stitch-day" data-layer="back" x="303" y="179" width="6" height="2" fill="#a386a3"/><rect data-scene="loose-stitch-day" data-layer="back" x="308" y="181" width="2" height="24" fill="#a386a3"/><rect data-scene="loose-stitch-day" data-layer="back" x="306" y="205" width="2" height="6" fill="#a386a3"/><rect data-scene="loose-stitch-day" data-layer="back" x="205" y="296" width="99" height="20" fill="#b39aae"/><rect data-scene="loose-stitch-day" data-layer="back" x="200" y="301" width="109" height="10" fill="#b39aae"/><rect data-scene="loose-stitch-day" data-layer="back" x="207" y="294" width="95" height="17" fill="#d1b4c9"/><rect data-scene="loose-stitch-day" data-layer="back" x="202" y="299" width="105" height="7" fill="#d1b4c9"/><rect data-scene="loose-stitch-day" data-layer="back" x="266" y="311" width="32" height="17" fill="#d1b4c9"/><rect data-scene="loose-stitch-day" data-layer="back" x="272" y="316" width="2" height="2" fill="#b39aae"/><rect data-scene="loose-stitch-day" data-layer="back" x="276" y="316" width="2" height="2" fill="#b39aae"/><rect data-scene="loose-stitch-day" data-layer="back" x="274" y="318" width="2" height="2" fill="#b39aae"/><rect data-scene="loose-stitch-day" data-layer="back" x="282" y="316" width="2" height="2" fill="#b39aae"/><rect data-scene="loose-stitch-day" data-layer="back" x="286" y="316" width="2" height="2" fill="#b39aae"/><rect data-scene="loose-stitch-day" data-layer="back" x="284" y="318" width="2" height="2" fill="#b39aae"/><rect data-scene="loose-stitch-day" data-layer="back" x="292" y="316" width="2" height="2" fill="#b39aae"/><rect data-scene="loose-stitch-day" data-layer="back" x="296" y="316" width="2" height="2" fill="#b39aae"/><rect data-scene="loose-stitch-day" data-layer="back" x="294" y="318" width="2" height="2" fill="#b39aae"/><rect data-scene="loose-stitch-day" data-layer="back" x="268" y="326" width="2" height="6" fill="#b39aae"/><rect data-scene="loose-stitch-day" data-layer="back" x="274" y="326" width="2" height="6" fill="#b39aae"/><rect data-scene="loose-stitch-day" data-layer="back" x="280" y="326" width="2" height="6" fill="#b39aae"/><rect data-scene="loose-stitch-day" data-layer="back" x="286" y="326" width="2" height="6" fill="#b39aae"/><rect data-scene="loose-stitch-day" data-layer="back" x="292" y="326" width="2" height="6" fill="#b39aae"/><rect data-scene="loose-stitch-day" data-layer="back" x="298" y="326" width="2" height="6" fill="#b39aae"/><rect data-scene="loose-stitch-day" data-layer="back" x="42" y="109" width="34" height="29" fill="#c4b0c0"/><rect data-scene="loose-stitch-day" data-layer="back" x="44" y="111" width="30" height="25" fill="#eee6eb"/><rect data-scene="loose-stitch-day" data-layer="back" x="57" y="105" width="3" height="2" fill="#c4b0c0"/><rect data-scene="loose-stitch-day" data-layer="back" x="54" y="117" width="2" height="2" fill="#8a7b87"/><rect data-scene="loose-stitch-day" data-layer="back" x="56" y="117" width="2" height="2" fill="#8a7b87"/><rect data-scene="loose-stitch-day" data-layer="back" x="60" y="117" width="2" height="2" fill="#8a7b87"/><rect data-scene="loose-stitch-day" data-layer="back" x="62" y="117" width="2" height="2" fill="#8a7b87"/><rect data-scene="loose-stitch-day" data-layer="back" x="52" y="119" width="2" height="2" fill="#8a7b87"/><rect data-scene="loose-stitch-day" data-layer="back" x="54" y="119" width="2" height="2" fill="#8a7b87"/><rect data-scene="loose-stitch-day" data-layer="back" x="56" y="119" width="2" height="2" fill="#8a7b87"/><rect data-scene="loose-stitch-day" data-layer="back" x="58" y="119" width="2" height="2" fill="#8a7b87"/><rect data-scene="loose-stitch-day" data-layer="back" x="60" y="119" width="2" height="2" fill="#8a7b87"/><rect data-scene="loose-stitch-day" data-layer="back" x="62" y="119" width="2" height="2" fill="#8a7b87"/><rect data-scene="loose-stitch-day" data-layer="back" x="64" y="119" width="2" height="2" fill="#8a7b87"/><rect data-scene="loose-stitch-day" data-layer="back" x="52" y="121" width="2" height="2" fill="#8a7b87"/><rect data-scene="loose-stitch-day" data-layer="back" x="54" y="121" width="2" height="2" fill="#8a7b87"/><rect data-scene="loose-stitch-day" data-layer="back" x="56" y="121" width="2" height="2" fill="#8a7b87"/><rect data-scene="loose-stitch-day" data-layer="back" x="58" y="121" width="2" height="2" fill="#8a7b87"/><rect data-scene="loose-stitch-day" data-layer="back" x="60" y="121" width="2" height="2" fill="#8a7b87"/><rect data-scene="loose-stitch-day" data-layer="back" x="62" y="121" width="2" height="2" fill="#8a7b87"/><rect data-scene="loose-stitch-day" data-layer="back" x="64" y="121" width="2" height="2" fill="#8a7b87"/><rect data-scene="loose-stitch-day" data-layer="back" x="54" y="123" width="2" height="2" fill="#8a7b87"/><rect data-scene="loose-stitch-day" data-layer="back" x="56" y="123" width="2" height="2" fill="#8a7b87"/><rect data-scene="loose-stitch-day" data-layer="back" x="58" y="123" width="2" height="2" fill="#8a7b87"/><rect data-scene="loose-stitch-day" data-layer="back" x="60" y="123" width="2" height="2" fill="#8a7b87"/><rect data-scene="loose-stitch-day" data-layer="back" x="62" y="123" width="2" height="2" fill="#8a7b87"/><rect data-scene="loose-stitch-day" data-layer="back" x="56" y="125" width="2" height="2" fill="#8a7b87"/><rect data-scene="loose-stitch-day" data-layer="back" x="58" y="125" width="2" height="2" fill="#8a7b87"/><rect data-scene="loose-stitch-day" data-layer="back" x="60" y="125" width="2" height="2" fill="#8a7b87"/><rect data-scene="loose-stitch-day" data-layer="back" x="58" y="127" width="2" height="2" fill="#8a7b87"/><rect data-scene="loose-stitch-day" data-layer="back" x="54" y="121" width="1" height="1" fill="#f2ecef"/><rect data-scene="loose-stitch-day" data-layer="back" x="60" y="121" width="1" height="1" fill="#f2ecef"/><rect data-scene="loose-stitch-day" data-layer="back" x="58" y="125" width="1" height="1" fill="#f2ecef"/></g></svg>