<svg xmlns="http://www.w3.org/2000/svg" width="360" height="360" viewBox="0 0 360 360" shape-rendering="crispEdges"><title>PixelMew / Cardboard Club Night / room</title><defs><clipPath id="screen"><circle cx="180" cy="180" r="180"/></clipPath></defs><g clip-path="url(#screen)"><rect width="360" height="360" fill="#39312d"/><rect data-scene="cardboard-club-night" data-layer="back" x="0" y="320" width="360" height="40" fill="#493c33"/><rect data-scene="cardboard-club-night" data-layer="back" x="208" y="315" width="89" height="8" fill="#493c33"/><rect data-scene="cardboard-club-night" data-layer="back" x="290" y="164" width="34" height="20" fill="#493c33"/><rect data-scene="cardboard-club-night" data-layer="back" x="285" y="184" width="42" height="20" fill="#493c33"/><rect data-scene="cardboard-club-night" data-layer="back" x="280" y="204" width="50" height="20" fill="#493c33"/><rect data-scene="cardboard-club-night" data-layer="back" x="275" y="224" width="58" height="20" fill="#493c33"/><rect data-scene="cardboard-club-night" data-layer="back" x="270" y="244" width="66" height="20" fill="#493c33"/><rect data-scene="cardboard-club-night" data-layer="back" x="265" y="264" width="74" height="20" fill="#493c33"/><rect data-scene="cardboard-club-night" data-layer="back" x="309" y="156" width="3" height="63" fill="#a98d8a"/><rect data-scene="cardboard-club-night" data-layer="back" x="301" y="216" width="20" height="3" fill="#a98d8a"/><rect data-scene="cardboard-club-night" data-layer="back" x="300" y="137" width="22" height="5" fill="#d7b486"/><rect data-scene="cardboard-club-night" data-layer="back" x="297" y="142" width="28" height="5" fill="#d7b486"/><rect data-scene="cardboard-club-night" data-layer="back" x="294" y="147" width="34" height="5" fill="#d7b486"/><rect data-scene="cardboard-club-night" data-layer="back" x="291" y="152" width="40" height="5" fill="#d7b486"/><rect data-scene="cardboard-club-night" data-layer="back" x="301" y="157" width="20" height="3" fill="#b59c9b"/><rect data-scene="cardboard-club-night" data-layer="back" x="198" y="263" width="111" height="42" fill="#b39677"/><rect data-scene="cardboard-club-night" data-layer="back" x="202" y="267" width="103" height="37" fill="#493c33"/><rect data-scene="cardboard-club-night" data-layer="back" x="186" y="269" width="19" height="4" fill="#8c7257"/><rect data-scene="cardboard-club-night" data-layer="back" x="189" y="273" width="19" height="4" fill="#8c7257"/><rect data-scene="cardboard-club-night" data-layer="back" x="192" y="277" width="19" height="4" fill="#8c7257"/><rect data-scene="cardboard-club-night" data-layer="back" x="195" y="281" width="19" height="4" fill="#8c7257"/><rect data-scene="cardboard-club-night" data-layer="back" x="306" y="269" width="20" height="4" fill="#8c7257"/><rect data-scene="cardboard-club-night" data-layer="back" x="303" y="273" width="20" height="4" fill="#8c7257"/><rect data-scene="cardboard-club-night" data-layer="back" x="300" y="277" width="20" height="4" fill="#8c7257"/><rect data-scene="cardboard-club-night" data-layer="back" x="297" y="281" width="20" height="4" fill="#8c7257"/><rect data-scene="cardboard-club-night" data-layer="back" x="205" y="268" width="89" height="2" fill="#c9ad85"/><rect data-scene="cardboard-club-night" data-layer="back" x="42" y="109" width="34" height="29" fill="#786653"/><rect data-scene="cardboard-club-night" data-layer="back" x="44" y="111" width="30" height="25" fill="#3f352f"/><rect data-scene="cardboard-club-night" data-layer="back" x="57" y="105" width="3" height="2" fill="#786653"/><rect data-scene="cardboard-club-night" data-layer="back" x="54" y="117" width="2" height="2" fill="#958065"/><rect data-scene="cardboard-club-night" data-layer="back" x="56" y="117" width="2" height="2" fill="#958065"/><rect data-scene="cardboard-club-night" data-layer="back" x="60" y="117" width="2" height="2" fill="#958065"/><rect data-scene="cardboard-club-night" data-layer="back" x="62" y="117" width="2" height="2" fill="#958065"/><rect data-scene="cardboard-club-night" data-layer="back" x="52" y="119" width="2" height="2" fill="#958065"/><rect data-scene="cardboard-club-night" data-layer="back" x="54" y="119" width="2" height="2" fill="#958065"/><rect data-scene="cardboard-club-night" data-layer="back" x="56" y="119" width="2" height="2" fill="#958065"/><rect data-scene="cardboard-club-night" data-layer="back" x="58" y="119" width="2" height="2" fill="#958065"/><rect data-scene="cardboard-club-night" data-layer="back" x="60" y="119" width="2" height="2" fill="#958065"/><rect data-scene="cardboard-club-night" data-layer="back" x="62" y="119" width="2" height="2" fill="#958065"/><rect data-scene="cardboard-club-night" data-layer="back" x="64" y="119" width="2" height="2" fill="#958065"/><rect data-scene="cardboard-club-night" data-layer="back" x="52" y="121" width="2" height="2" fill="#958065"/><rect data-scene="cardboard-club-night" data-layer="back" x="54" y="121" width="2" height="2" fill="#958065"/><rect data-scene="cardboard-club-night" data-layer="back" x="56" y="121" width="2" height="2" fill="#958065"/><rect data-scene="cardboard-club-night" data-layer="back" x="58" y="121" width="2" height="2" fill="#958065"/><rect data-scene="cardboard-club-night" data-layer="back" x="60" y="121" width="2" height="2" fill="#958065"/><rect data-scene="cardboard-club-night" data-layer="back" x="62" y="121" width="2" height="2" fill="#958065"/><rect data-scene="cardboard-club-night" data-layer="back" x="64" y="121" width="2" height="2" fill="#958065"/><rect data-scene="cardboard-club-night" data-layer="back" x="54" y="123" width="2" height="2" fill="#958065"/><rect data-scene="cardboard-club-night" data-layer="back" x="56" y="123" width="2" height="2" fill="#958065"/><rect data-scene="cardboard-club-night" data-layer="back" x="58" y="123" width="2" height="2" fill="#958065"/><rect data-scene="cardboard-club-night" data-layer="back" x="60" y="123" width="2" height="2" fill="#958065"/><rect data-scene="cardboard-club-night" data-layer="back" x="62" y="123" width="2" height="2" fill="#958065"/><rect data-scene="cardboard-club-night" data-layer="back" x="56" y="125" width="2" height="2" fill="#958065"/><rect data-scene="cardboard-club-night" data-layer="back" x="58" y="125" width="2" height="2" fill="#958065"/><rect data-scene="cardboard-club-night" data-layer="back" x="60" y="125" width="2" height="2" fill="#958065"/><rect data-scene="cardboard-club-night" data-layer="back" x="58" y="127" width="2" height="2" fill="#958065"/><rect data-scene="cardboard-club-night" data-layer="back" x="54" y="121" width="1" height="1" fill="#39312d"/><rect data-scene="cardboard-club-night" data-layer="back" x="60" y="121" width="1" height="1" fill="#39312d"/><rect data-scene="cardboard-club-night" data-layer="back" x="58" y="125" width="1" height="1" fill="#39312d"/><rect data-scene="cardboard-club-night" data-layer="back" x="281" y="101" width="2" height="2" fill="#76634e"/><rect data-scene="cardboard-club-night" data-layer="back" x="281" y="103" width="2" height="2" fill="#76634e"/><rect data-scene="cardboard-club-night" data-layer="back" x="277" y="105" width="2" height="2" fill="#76634e"/><rect data-scene="cardboard-club-night" data-layer="back" x="279" y="105" width="2" height="2" fill="#76634e"/><rect data-scene="cardboard-club-night" data-layer="back" x="281" y="105" width="2" height="2" fill="#76634e"/><rect data-scene="cardboard-club-night" data-layer="back" x="283" y="105" width="2" height="2" fill="#76634e"/><rect data-scene="cardboard-club-night" data-layer="back" x="285" y="105" width="2" height="2" fill="#76634e"/><rect data-scene="cardboard-club-night" data-layer="back" x="281" y="107" width="2" height="2" fill="#76634e"/><rect data-scene="cardboard-club-night" data-layer="back" x="281" y="109" width="2" height="2" fill="#76634e"/><rect data-scene="cardboard-club-night" data-layer="back" x="315" y="110" width="2" height="2" fill="#786653"/><rect data-scene="cardboard-club-night" data-layer="back" x="313" y="112" width="2" height="2" fill="#786653"/><rect data-scene="cardboard-club-night" data-layer="back" x="315" y="112" width="2" height="2" fill="#786653"/><rect data-scene="cardboard-club-night" data-layer="back" x="317" y="112" width="2" height="2" fill="#786653"/><rect data-scene="cardboard-club-night" data-layer="back" x="315" y="114" width="2" height="2" fill="#786653"/><rect data-scene="cardboard-club-night" data-layer="back" x="319" y="182" width="3" height="3" fill="#7f6a53"/><rect data-scene="cardboard-club-night" data-layer="back" x="327" y="227" width="2" height="2" fill="#7f6a53"/><rect data-scene="cardboard-club-night" data-layer="back" x="316" y="250" width="3" height="3" fill="#7f6a53"/><rect data-scene="cardboard-club-night" data-layer="back" x="321" y="271" width="2" height="2" fill="#7f6a53"/></g></svg>